# xmcd
#
# Track frame offsets:
#	150
#	12260
#	29412
#	46575
#	56775
#	70123
#	91461
#	98058
#	114089
#	131964
#	144526
#	158162
#
# Disc length: 2259 seconds
#
# Revision: 1
# Processed by: cddbd v1.4PL0 Copyright (c) Steve Scherf et al.
# Submitted via: audiograbber 1.80.04
#
DISCID=9b08d10c
DTITLE=John Lee Hooker - Is He The World's Greatest Blues Singer?
DYEAR=1965
DGENRE=Blues
TTITLE0=Crawlin' Kingsnake
TTITLE1=Blues Before Sunrise
TTITLE2=Process
TTITLE3=Want Ad Blues
TTITLE4=Whiskey And Wimmen
TTITLE5=The Mighty Fire
TTITLE6=Talk That Talk Baby
TTITLE7=My First Wife Left Me
TTITLE8=Wednesday Evening Blues
TTITLE9=Maudie
TTITLE10=Time Is Marching
TTITLE11=Boom Boom
EXTD=
EXTT0=
EXTT1=
EXTT2=
EXTT3=
EXTT4=
EXTT5=
EXTT6=
EXTT7=
EXTT8=
EXTT9=
EXTT10=
EXTT11=
PLAYORDER=
